<svg width="601" height="251" viewBox="0 0 601 251" fill="none" xmlns="http://www.w3.org/2000/svg">
<mask id="path-1-inside-1_38_1525" fill="white">
<path d="M0.496094 20.5106C0.496094 9.46492 9.4504 0.51062 20.4961 0.51062H580.496C591.542 0.51062 600.496 9.46493 600.496 20.5106V230.511C600.496 241.556 591.542 250.511 580.496 250.511H20.4961C9.45042 250.511 0.496094 241.556 0.496094 230.511V20.5106Z"/>
</mask>
<path d="M0.496094 20.5106C0.496094 9.46492 9.4504 0.51062 20.4961 0.51062H580.496C591.542 0.51062 600.496 9.46493 600.496 20.5106V230.511C600.496 241.556 591.542 250.511 580.496 250.511H20.4961C9.45042 250.511 0.496094 241.556 0.496094 230.511V20.5106Z" fill="#E6F5DA"/>
<path d="M-4.50391 20.5106C-4.50391 6.7035 6.68898 -4.48938 20.4961 -4.48938H586.496C600.303 -4.48938 611.496 6.7035 611.496 20.5106H589.496C589.496 12.2263 585.467 5.51062 580.496 5.51062H20.4961C12.2118 5.51062 5.49609 12.2263 5.49609 20.5106H-4.50391ZM611.496 230.511C611.496 247.631 597.617 261.511 580.496 261.511H20.4961C6.68898 261.511 -4.50391 250.318 -4.50391 236.511L5.49609 230.511C5.49609 235.481 12.2118 239.511 20.4961 239.511H580.496C585.467 239.511 589.496 235.481 589.496 230.511H611.496ZM20.4961 261.511C6.68898 261.511 -4.50391 250.318 -4.50391 236.511V20.5106C-4.50391 6.7035 6.68898 -4.48938 20.4961 -4.48938V5.51062C12.2118 5.51062 5.49609 12.2263 5.49609 20.5106V230.511C5.49609 235.481 12.2118 239.511 20.4961 239.511V261.511ZM586.496 -4.48938C600.303 -4.48938 611.496 6.7035 611.496 20.5106V230.511C611.496 247.631 597.617 261.511 580.496 261.511V239.511C585.467 239.511 589.496 235.481 589.496 230.511V20.5106C589.496 12.2263 585.467 5.51062 580.496 5.51062L586.496 -4.48938Z" fill="#00AA64" mask="url(#path-1-inside-1_38_1525)"/>
<circle cx="23.7148" cy="24.6142" r="7.5" stroke="#00AA64" stroke-width="5"/>
<circle cx="566.184" cy="24.6142" r="7.5" stroke="#00AA64" stroke-width="5"/>
<circle cx="566.184" cy="219.342" r="7.5" stroke="#00AA64" stroke-width="5"/>
<circle cx="23.7148" cy="219.342" r="7.5" stroke="#00AA64" stroke-width="5"/>
</svg>
